<svg height="16" viewBox="0 0 4.2333332 4.2333333" width="16" xmlns="http://www.w3.org/2000/svg" xmlns:xlink="http://www.w3.org/1999/xlink"><linearGradient id="a"><stop offset="0" stop-color="#ff5f5f"/><stop offset=".5" stop-color="#e1da5b"/><stop offset="1" stop-color="#5fff97"/></linearGradient><linearGradient id="b" gradientTransform="matrix(1.1412411 0 0 1.21746 -.29896 -.460291)" gradientUnits="userSpaceOnUse" x1=".261961" x2=".261961" xlink:href="#a" y1=".595399" y2="3.637935"/><linearGradient id="c" gradientTransform="matrix(1.1664649 0 0 .88620577 -.132132 -.102103)" gradientUnits="userSpaceOnUse" x1=".113275" x2=".113275" xlink:href="#a" y1=".413771" y2="4.593576"/><linearGradient id="d" gradientUnits="userSpaceOnUse" x1="0" x2="0" xlink:href="#a" y1=".264583" y2="3.96875"/><linearGradient id="e" gradientTransform="matrix(1.1640414 0 0 1.2417833 -.271292 -.605922)" gradientUnits="userSpaceOnUse" x1=".23306" x2=".23306" xlink:href="#a" y1=".721491" y2="3.99113"/><g fill="none" transform="matrix(1.142754 0 0 1.0580904 -.302226 -.213441)"><path d="m.393658.922825h3.446017v2.387684h-3.446017z" stroke="url(#b)" stroke-linecap="round" stroke-width=".25815"/><g stroke-linecap="square"><path d="m.79374998.3668475v.46895053m0 3.20171937v-.4689505" stroke="url(#c)" stroke-miterlimit="0" stroke-width=".330729"/><g stroke="url(#d)" stroke-miterlimit="0" stroke-width=".264583"><path d="m.52916666 1.0583333h.79374994"/><path d="m3.7041666 1.0583333h-.79375"/><path d="m.52916666 3.175h.79374994"/><path d="m3.7041666 3.175h-.79375"/></g><g stroke="url(#e)" stroke-width=".179652" transform="scale(1.0961126 .91231504)"><path d="m.78306674 2.4269137v.3228734h.23481706q.02446 0 .03506.00978.010599.00897.010599.02446 0 .014676-.010599.02446-.010599.00978-.03506.00978h-.39543844q-.0244601 0-.0350595-.00978-.0105994-.00978-.0105994-.02446 0-.015491.0105994-.02446.0105994-.00978.0350595-.00978h.0921331v-.8169676h-.0921331q-.0244601 0-.0350595-.00897-.0105994-.00978-.0105994-.025275 0-.015491.0105994-.02446.0105994-.00978.0350595-.00978h.39788444q.1410533 0 .229925.083164.089687.083164.089687.1948655 0 .066042-.029352.1190392-.028537.052997-.069304.083164-.06115.045659-.1263772.066858-.04729.015491-.11740855.015491zm0-.068488h.21851026q.075826 0 .1418687-.033429.066858-.034244.097025-.083164.030983-.04892.030983-.099471 0-.080718-.069304-.1451299-.069304-.064412-.1752974-.064412h-.24378556z"/><path d="m2.269426 1.7950276v.9547595h.091318q.025275 0 .035875.00978.010599.00897.010599.02446 0 .014676-.010599.02446-.010599.00978-.035875.00978h-.1606217v-.1361529q-.1190392.1630674-.30249.1630674-.092948 0-.1785588-.04892-.084795-.049736-.1345306-.1410533-.04892-.091318-.04892-.1883429 0-.09784.04892-.1883428.049736-.091318.1345306-.1410533.08561-.049736.1793742-.049736.1793741 0 .3016746.1630673v-.3864694h-.091318q-.025276 0-.035875-.00978-.010599-.00978-.010599-.025276 0-.014676.010599-.02446.010599-.00978.035875-.00978zm-.069304.6718376q0-.1304539-.088056-.2201409-.088056-.089687-.2095416-.089687-.1223005 0-.2103569.089687-.088056.089687-.088056.2201409 0 .1296386.088056.220141.088056.089687.2103569.089687.1214852 0 .2095416-.089687.088056-.090502.088056-.220141z"/><path d="m3.2527223 2.2736304q.013045 0 .022829.00978.00978.00978.00978.02283 0 .028537-.070934.094579-.070934.065227-.1304539.065227-.03669 0-.074196-.020383-.037505-.021199-.1068091-.086426-.046474-.044028-.070934-.057889-.023645-.013861-.043213-.013861-.023645 0-.044843.013045-.028537.016307-.078272.074196-.023645.026906-.030983.030983-.00652.00408-.014676.00408-.013861 0-.023645-.00897-.00897-.00978-.00897-.023645 0-.013045.021199-.039951.053812-.066858.09621-.092133.042398-.026091.082349-.026091.033429 0 .066042.016307.032614.015491.08398.061966.082349.075826.1019171.088056.020383.011415.039951.011415.057889 0 .1231159-.083164.023645-.030168.031798-.03506.00815-.00489.018753-.00489z"/></g></g></g></svg>